<?xml version="1.0" encoding="utf-8"?>
<?xml-stylesheet type="text/xsl" href="rss1.xsl"?>
<rss version="2.0" xmlns:atom="http://www.w3.org/2005/Atom" xmlns:content="http://purl.org/rss/1.0/modules/content/" xmlns:dc="http://purl.org/dc/elements/1.1/" xmlns:media="http://search.yahoo.com/mrss/">
<channel>
 <title>Getty</title>
 <link>http://www.gettyimg.com/</link>
 <atom:link href="http://www.gettyimg.com/" rel="self" type="application/rss+xml" />

 
                <item>
                <title><![CDATA[【Albums (lossless)】FLAC - COCTEAU TWINS - 1988 - Blue Bell Knoll [2014 Remastered] [24bit-96kHz]]]></title>
                <link><![CDATA[https://sharemania.us/threads/cocteau-twins-1988-blue-bell-knoll-2014-remastered-24bit-96khz.243575/]]></link>
                <description><![CDATA[<article>
<blockquote class="messageText SelectQuoteContainer ugc baseHtml">
<div style="text-align: center"><img src="https://static.qobuz.com/images/covers/35/19/0652637341935_600.jpg" class="bbCodeImage LbImage" alt="[​IMG]" data-url="https://static.qobuz.com/images/covers/35/19/0652637341935_600.jpg" style=""> <br>
<br>
<b>Band</b>: Cocteau Twins<br>
<b>Album</b>: Blue Bell Knoll<br>
<b>Date</b>: 19 September 1988<br>
<b>Genre</b>: Dream Pop/Alternative/Indie<br>
<b>Quality</b>: 24bit-96kHz<br>
<b>Country</b>: Scotland<br>
<b>Size</b>: 729,7MB<br>
<br>
<b>Tracklist</b>:<br>
<br>
1-Blue Bell Knoll 03:23<br>
2-Athol-brose 02:58<br>
3-Carolyn's Fingers 03:05<br>
4-For Phoebe Still A Baby 03:14<br>
5-The Itchy Glowbo Blow 03:23<br>
6-Cico Buff 03:48<br>
7-Suckling The Mender 03:33<br>
8-Spooning Good Singing Gum 03:50<br>
9-A Kissed Out Red Floatboat 04:07<br>
10-Ella Megablast Burls Forever 03:39<br>
<br>
<b><span style="font-size: 18px"><span style="color: #b30000">Filedot</span></span></b>:<br>
<br>
<div class="bbCodeBlock bbCodeVfcHH HiddenContent">
<div class="attribution type">Hidden Content:</div>
<blockquote>You must either reply or click 'Like' to see the hidden information contained here.</blockquote>
</div></div>
<div class="messageTextEndMarker">&nbsp;</div>
</blockquote>
</article>]]></description>
                <author><![CDATA[XRB80]]></author>
                </item>

                
                <item>
                <title><![CDATA[【Cinema Center】WEB-DL - Scream 3 2000 1080p HMAX WEB-DL DD5.1 H.264 DUAL-SiGLA]]></title>
                <link><![CDATA[https://sharemania.us/threads/scream-3-2000-1080p-hmax-web-dl-dd5-1-h-264-dual-sigla.243576/]]></link>
                <description><![CDATA[<article>
<blockquote class="messageText SelectQuoteContainer ugc baseHtml">
<div style="text-align: center"><img src="https://i.ibb.co/K0cVd6t/5t-Vwu-G14n-Zv-Eyb-Wx-ER7d-OZ8sd-G.jpg" class="bbCodeImage LbImage" alt="[​IMG]" data-url="https://i.ibb.co/K0cVd6t/5t-Vwu-G14n-Zv-Eyb-Wx-ER7d-OZ8sd-G.jpg" style=""><br>
<br>
<a href="https://ibb.co/fxkNysm" target="_blank" class="externalLink" rel="nofollow"><img src="https://i.ibb.co/fxkNysm/Panico-3-2000-1080p-HMAX-WEB-DL-DD5-1-x264-Si-GLA-mkv-snapshot-00-05-16-316.png" class="bbCodeImage LbImage" alt="[​IMG]" data-url="https://i.ibb.co/fxkNysm/Panico-3-2000-1080p-HMAX-WEB-DL-DD5-1-x264-Si-GLA-mkv-snapshot-00-05-16-316.png"></a> <a href="https://ibb.co/rsrwJ2G" target="_blank" class="externalLink" rel="nofollow"><img src="https://i.ibb.co/rsrwJ2G/Panico-3-2000-1080p-HMAX-WEB-DL-DD5-1-x264-Si-GLA-mkv-snapshot-00-59-35-572.png" class="bbCodeImage LbImage" alt="[​IMG]" data-url="https://i.ibb.co/rsrwJ2G/Panico-3-2000-1080p-HMAX-WEB-DL-DD5-1-x264-Si-GLA-mkv-snapshot-00-59-35-572.png"></a> <a href="https://ibb.co/1m79mpK" target="_blank" class="externalLink" rel="nofollow"><img src="https://i.ibb.co/1m79mpK/Panico-3-2000-1080p-HMAX-WEB-DL-DD5-1-x264-Si-GLA-mkv-snapshot-00-34-26-064.png" class="bbCodeImage LbImage" alt="[​IMG]" data-url="https://i.ibb.co/1m79mpK/Panico-3-2000-1080p-HMAX-WEB-DL-DD5-1-x264-Si-GLA-mkv-snapshot-00-34-26-064.png"></a> <a href="https://ibb.co/7QRvvH7" target="_blank" class="externalLink" rel="nofollow"><img src="https://i.ibb.co/7QRvvH7/Panico-3-2000-1080p-HMAX-WEB-DL-DD5-1-x264-Si-GLA-mkv-snapshot-00-34-15-289.png" class="bbCodeImage LbImage" alt="[​IMG]" data-url="https://i.ibb.co/7QRvvH7/Panico-3-2000-1080p-HMAX-WEB-DL-DD5-1-x264-Si-GLA-mkv-snapshot-00-34-15-289.png"></a> <a href="https://ibb.co/4djF7Yd" target="_blank" class="externalLink" rel="nofollow"><img src="https://i.ibb.co/4djF7Yd/Panico-3-2000-1080p-HMAX-WEB-DL-DD5-1-x264-Si-GLA-mkv-snapshot-00-25-11-700.png" class="bbCodeImage LbImage" alt="[​IMG]" data-url="https://i.ibb.co/4djF7Yd/Panico-3-2000-1080p-HMAX-WEB-DL-DD5-1-x264-Si-GLA-mkv-snapshot-00-25-11-700.png"></a> <a href="https://ibb.co/s3SX518" target="_blank" class="externalLink" rel="nofollow"><img src="https://i.ibb.co/s3SX518/Panico-3-2000-1080p-HMAX-WEB-DL-DD5-1-x264-Si-GLA-mkv-snapshot-00-17-01-020.png" class="bbCodeImage LbImage" alt="[​IMG]" data-url="https://i.ibb.co/s3SX518/Panico-3-2000-1080p-HMAX-WEB-DL-DD5-1-x264-Si-GLA-mkv-snapshot-00-17-01-020.png"></a> <a href="https://ibb.co/bvNkG0X" target="_blank" class="externalLink" rel="nofollow"><img src="https://i.ibb.co/bvNkG0X/Panico-3-2000-1080p-HMAX-WEB-DL-DD5-1-x264-Si-GLA-mkv-snapshot-00-11-17-338.png" class="bbCodeImage LbImage" alt="[​IMG]" data-url="https://i.ibb.co/bvNkG0X/Panico-3-2000-1080p-HMAX-WEB-DL-DD5-1-x264-Si-GLA-mkv-snapshot-00-11-17-338.png"></a> <a href="https://ibb.co/KrHzXL9" target="_blank" class="externalLink" rel="nofollow"><img src="https://i.ibb.co/KrHzXL9/Panico-3-2000-1080p-HMAX-WEB-DL-DD5-1-x264-Si-GLA-mkv-snapshot-00-07-28-956.png" class="bbCodeImage LbImage" alt="[​IMG]" data-url="https://i.ibb.co/KrHzXL9/Panico-3-2000-1080p-HMAX-WEB-DL-DD5-1-x264-Si-GLA-mkv-snapshot-00-07-28-956.png"></a> <a href="https://ibb.co/rHp4110" target="_blank" class="externalLink" rel="nofollow"><img src="https://i.ibb.co/rHp4110/Panico-3-2000-1080p-HMAX-WEB-DL-DD5-1-x264-Si-GLA-mkv-snapshot-00-05-34-645.png" class="bbCodeImage LbImage" alt="[​IMG]" data-url="https://i.ibb.co/rHp4110/Panico-3-2000-1080p-HMAX-WEB-DL-DD5-1-x264-Si-GLA-mkv-snapshot-00-05-34-645.png"></a><br>
<br>
<i>The most terrifying scream is always the last.</i>​</div><br>
<span style="font-size: 15px"><b>Sinopse</b></span><br>
While Sidney Prescott lives in safely guarded seclusion, bodies begin dropping around the Hollywood set of STAB 3, the latest movie based on the gruesome Woodsboro killings.<br>
<br>
<div style="text-align: center"><span data-s9e-mediaembed="youtube" style="display:inline-block;width:100%;max-width:640px"><span style="display:block;overflow:hidden;position:relative;padding-bottom:56.25%"><iframe allowfullscreen="" loading="lazy" scrolling="no" style="background:url(https://i.ytimg.com/vi/WFyhTIqJgis/hqdefault.jpg) 50% 50% / cover;border:0;height:100%;left:0;position:absolute;width:100%" src="https://www.youtube.com/embed/WFyhTIqJgis"></iframe></span></span>​</div><br>
<div style="text-align: left">
<div class="bbCodeBlock bbCodeCode">
<div class="type">Code:</div>
<pre>General
Unique ID                      : 26102629555825991745126527409458714021 (0x13A32EFFAE50E896A2EA51CF2F8715A5)
Complete name                  : C:\Users\C.A.A\SiGLA\Filmes\HMAX\Panico.3.2000.1080p.HMAX.WEB-DL.DD5.1.x264-SiGLA.mkv
Format                         : Matroska
Format version                 : Version 4
File size                      : 7.38 GiB
Duration                       : 1 h 57 min
Overall bit rate mode          : Variable
Overall bit rate               : 8 994 kb/s
Frame rate                     : 29.970 FPS
Movie name                     : Pânico 3 (2000)
Writing application            : mkvmerge v69.0.0 ('SiGLA') 64-bit
Writing library                : libebml v1.4.2 + libmatroska v1.6.4

Video
ID                             : 1
Format                         : AVC
Format/Info                    : Advanced Video Codec
Format profile                 : High@L4
Format settings                : CABAC / 4 Ref Frames
Format settings, CABAC         : Yes
Format settings, Reference fra : 4 frames
Codec ID                       : V_MPEG4/ISO/AVC
Duration                       : 1 h 57 min
Bit rate mode                  : Variable
Bit rate                       : 8 250 kb/s
Maximum bit rate               : 12.4 Mb/s
Width                          : 1 920 pixels
Height                         : 1 080 pixels
Display aspect ratio           : 16:9
Frame rate mode                : Constant
Frame rate                     : 29.970 (30000/1001) FPS
Color space                    : YUV
Chroma subsampling             : 4:2:0
Bit depth                      : 8 bits
Scan type                      : Progressive
Bits/(Pixel*Frame)             : 0.133
Stream size                    : 6.74 GiB (91%)
Writing library                : x264 core 157 r2965 861cec4
Encoding settings              : cabac=1 / ref=4 / deblock=1:0:0 / analyse=0x3:0x113 / me=hex / subme=7 / psy=1 / psy_rd=1.00:0.00 / mixed_ref=1 / me_range=16 / chroma_me=1 / trellis=1 / 8x8dct=1 / cqm=0 / deadzone=21,11 / fast_pskip=1 / chroma_qp_offset=-2 / threads=34 / lookahead_threads=5 / sliced_threads=0 / nr=0 / decimate=1 / interlaced=0 / bluray_compat=0 / constrained_intra=0 / bframes=3 / b_pyramid=2 / b_adapt=1 / b_bias=0 / direct=1 / weightb=1 / open_gop=0 / weightp=2 / keyint=120 / keyint_min=120 / scenecut=40 / intra_refresh=0 / rc_lookahead=40 / rc=2pass / mbtree=1 / bitrate=8250 / ratetol=1.0 / qcomp=0.60 / qpmin=0 / qpmax=69 / qpstep=4 / cplxblur=20.0 / qblur=0.5 / vbv_maxrate=12375 / vbv_bufsize=6187 / nal_hrd=vbr / filler=0 / ip_ratio=1.40 / aq=1:1.00
Default                        : Yes
Forced                         : No
Color range                    : Limited
Color primaries                : BT.709
Transfer characteristics       : BT.709
Matrix coefficients            : BT.709

Audio #1
ID                             : 2
Format                         : AC-3
Format/Info                    : Audio Coding 3
Commercial name                : Dolby Digital
Codec ID                       : A_AC3
Duration                       : 1 h 57 min
Bit rate mode                  : Constant
Bit rate                       : 384 kb/s
Channel(s)                     : 2 channels
Channel layout                 : L R
Sampling rate                  : 48.0 kHz
Frame rate                     : 31.250 FPS (1536 SPF)
Compression mode               : Lossy
Stream size                    : 323 MiB (4%)
Title                          : Brazilian
Language                       : Portuguese (BR)
Service kind                   : Complete Main
Default                        : Yes
Forced                         : No

Audio #2
ID                             : 3
Format                         : AC-3
Format/Info                    : Audio Coding 3
Commercial name                : Dolby Digital
Codec ID                       : A_AC3
Duration                       : 1 h 57 min
Bit rate mode                  : Constant
Bit rate                       : 384 kb/s
Channel(s)                     : 6 channels
Channel layout                 : L R C LFE Ls Rs
Sampling rate                  : 48.0 kHz
Frame rate                     : 31.250 FPS (1536 SPF)
Compression mode               : Lossy
Stream size                    : 323 MiB (4%)
Language                       : English (US)
Service kind                   : Complete Main
Default                        : No
Forced                         : No
AC3_metadata cmixlev           : -3.0 dB
 surmixlev                     : -3 dB

Text #1
ID                             : 4
Format                         : UTF-8
Codec ID                       : S_TEXT/UTF8
Codec ID/Info                  : UTF-8 Plain Text
Duration                       : 1 h 49 min
Bit rate                       : 68 b/s
Frame rate                     : 0.219 FPS
Count of elements              : 1439
Stream size                    : 54.8 KiB (0%)
Title                          : Brazilian
Language                       : Portuguese (BR)
Default                        : No
Forced                         : No

Text #2
ID                             : 5
Format                         : UTF-8
Codec ID                       : S_TEXT/UTF8
Codec ID/Info                  : UTF-8 Plain Text
Duration                       : 1 h 49 min
Bit rate                       : 59 b/s
Frame rate                     : 0.219 FPS
Count of elements              : 1438
Stream size                    : 48.0 KiB (0%)
Title                          : Latin American
Language                       : Spanish (Latin America)
Default                        : No
Forced                         : No

Menu
00:00:00.000                   : en:Chapter 01
01:52:06.000                   : en:Credits


</pre>
</div></div><br>
<div class="bbCodeBlock bbCodeVfcHH HiddenContent">
<div class="attribution type">Hidden Content:</div>
<blockquote>You must either reply or click 'Like' to see the hidden information contained here.</blockquote>
</div>
<div class="messageTextEndMarker">&nbsp;</div>
</blockquote>
</article>]]></description>
                <author><![CDATA[-C.A.A]]></author>
                </item>

                </channel></rss>